<?xml version="1.0" encoding="UTF-8" standalone="no"?>
<!-- Created with Inkscape (http://www.inkscape.org/) -->

<svg
   width="1024"
   height="1024"
   viewBox="0 0 270.93333 270.93333"
   version="1.1"
   id="svg5"
   xml:space="preserve"
   inkscape:export-filename="bsb_light_1024.png"
   inkscape:export-xdpi="96"
   inkscape:export-ydpi="96"
   inkscape:version="1.2.1 (9c6d41e4, 2022-07-14)"
   sodipodi:docname="logo.svg"
   xmlns:inkscape="http://www.inkscape.org/namespaces/inkscape"
   xmlns:sodipodi="http://sodipodi.sourceforge.net/DTD/sodipodi-0.dtd"
   xmlns="http://www.w3.org/2000/svg"
   xmlns:svg="http://www.w3.org/2000/svg"><sodipodi:namedview
     id="namedview7"
     pagecolor="#fff1e7"
     bordercolor="#000000"
     borderopacity="0.25"
     inkscape:showpageshadow="2"
     inkscape:pageopacity="0"
     inkscape:pagecheckerboard="0"
     inkscape:deskcolor="#d1d1d1"
     inkscape:document-units="mm"
     showgrid="false"
     inkscape:zoom="0.39888559"
     inkscape:cx="359.75228"
     inkscape:cy="447.49674"
     inkscape:window-width="1440"
     inkscape:window-height="847"
     inkscape:window-x="0"
     inkscape:window-y="25"
     inkscape:window-maximized="0"
     inkscape:current-layer="layer1" /><defs
     id="defs2" /><g
     inkscape:label="Layer 1"
     inkscape:groupmode="layer"
     id="layer1"><g
       id="g559"
       transform="matrix(1.1740027,0,0,1.1934871,-23.571566,-16.04295)"><path
         style="fill:#000000;stroke-width:0.176389"
         d="m 168.97974,185.14524 c -3.79929,-0.59774 -6.20876,-2.97094 -6.89139,-6.78761 -0.67564,-3.77771 0.75622,-7.7445 3.4553,-9.57254 2.62395,-1.77713 6.79711,-2.09783 9.50352,-0.73032 1.3293,0.67169 2.02193,1.41706 2.73732,2.94585 0.45403,0.97021 0.54526,1.40629 0.61303,2.92976 0.0894,2.01091 -0.15143,2.79335 -0.95377,3.0984 -0.24443,0.0929 -2.66926,0.16881 -5.39465,0.16881 h -4.95061 l 0.0985,0.7348 c 0.13067,0.97425 0.92659,2.07266 1.89601,2.61659 0.70813,0.39733 0.97797,0.44042 2.72619,0.4354 1.74548,-0.005 2.09967,-0.0637 3.52778,-0.58477 0.87313,-0.31856 1.70669,-0.61781 1.85235,-0.665 0.1893,-0.0613 0.47394,0.33579 0.99781,1.3921 l 0.73297,1.4779 -0.82629,0.54093 c -1.0296,0.67403 -2.60899,1.34545 -3.99198,1.69702 -1.31902,0.33532 -3.94159,0.48999 -5.13213,0.30268 z m 2.56161,-11.23873 2.15877,-0.11607 -0.11176,-0.63358 c -0.23796,-1.34899 -1.29455,-2.13214 -2.87722,-2.13261 -1.86618,-5.3e-4 -3.06241,0.86923 -3.45662,2.51327 l -0.11631,0.48507 h 1.12218 c 0.61722,0 2.09365,-0.0522 3.28096,-0.11608 z m -36.41101,11.05373 c -1.60817,-0.14856 -4.00132,-0.59406 -4.77846,-0.88952 l -0.42501,-0.16159 -0.008,-9.92624 c -0.004,-5.45943 -0.0757,-10.27873 -0.15886,-10.70954 -0.18744,-0.97165 -0.54572,-1.24517 -1.63097,-1.24517 h -0.84824 v -1.38939 -1.38939 l 0.86744,-0.37317 c 2.0477,-0.88089 5.15737,-1.20134 5.99111,-0.61736 0.82624,0.57871 0.90256,1.11217 0.90256,6.30786 v 4.84293 l 1.0426,-0.69621 c 1.5449,-1.03165 2.80711,-1.42017 4.69004,-1.44364 2.79453,-0.0348 4.49432,0.87197 5.58904,2.98169 0.88461,1.70478 1.11222,2.80058 1.11303,5.35862 0,1.79425 -0.0725,2.4348 -0.39223,3.43958 -0.89968,2.82698 -3.06847,4.88465 -5.93556,5.63144 -1.30346,0.33951 -4.00756,0.4649 -6.01873,0.2791 z m 4.58612,-4.39184 c 1.53327,-0.70765 2.2879,-2.1808 2.271,-4.4333 -0.0138,-1.84104 -0.41723,-3.15735 -1.21084,-3.95098 -1.04253,-1.04252 -3.00605,-1.20668 -4.89971,-0.40964 l -0.84093,0.35396 0.0472,4.24652 0.0472,4.24652 0.44098,0.12257 c 0.95481,0.2654 3.41545,0.16113 4.14514,-0.17565 z m -47.713205,2.71481 v -1.49931 l 0.66146,-10e-4 c 0.91563,-0.001 2.02918,-0.32385 2.29305,-0.66409 0.28268,-0.3645 0.32258,-16.98263 0.042,-17.50686 -0.21013,-0.39263 -1.19354,-0.69931 -2.24688,-0.70069 l -0.74965,-9.1e-4 v -1.5184 -1.51841 l 7.18785,0.0875 c 7.985005,0.0972 8.765685,0.18739 10.691055,1.23559 1.85238,1.00847 2.69027,2.65658 2.54147,4.99907 -0.1481,2.33143 -1.3778,3.94468 -3.73798,4.90394 l -1.03095,0.419 0.98835,0.20518 c 3.6549,0.75876 5.68319,3.60266 5.05209,7.08356 -0.42772,2.35906 -1.57266,3.84992 -3.77216,4.91187 -1.98649,0.9591 -3.051,1.06336 -10.856725,1.06336 h -7.063 z m 13.336575,-2.4653 c 2.02985,-0.6028 2.97774,-3.03216 1.96517,-5.03653 -0.71736,-1.41999 -2.02241,-1.93498 -4.90347,-1.93498 h -1.57883 v 3.2632 c 0,4.0402 -0.0391,3.96875 2.17285,3.96875 0.80702,0 1.86193,-0.1172 2.34428,-0.26044 z m -0.16339,-11.39682 c 1.90128,-0.92039 1.99715,-4.02298 0.15337,-4.9636 -0.52904,-0.2699 -1.17284,-0.38079 -2.60491,-0.44866 l -1.9022,-0.0902 v 2.90599 c 0,1.5983 0.0595,2.96823 0.1323,3.04429 0.26537,0.27741 3.41307,-0.0565 4.22144,-0.44786 z m 10.85268,13.90794 0.0512,-1.45349 0.81638,-0.11632 c 1.05663,-0.15055 1.5361,-0.41661 1.66318,-0.9229 0.0563,-0.22452 0.0771,-2.25343 0.0462,-4.50868 -0.0558,-4.06515 -0.0599,-4.10337 -0.4727,-4.43738 -0.28397,-0.22975 -0.693,-0.33691 -1.28595,-0.33691 h -0.86954 l 0.0512,-1.45476 0.0512,-1.45476 1.05793,-0.41925 c 1.43785,-0.56982 3.67326,-0.94662 4.75654,-0.80177 1.12919,0.15098 1.78864,0.81054 1.96125,1.96153 0.067,0.447 0.0648,3.00709 -0.005,5.6891 -0.0698,2.682 -0.0714,5.17213 -0.004,5.53361 0.14296,0.76205 0.52575,1.02998 1.66975,1.16876 l 0.79375,0.0963 0.0512,1.4552 0.0512,1.45521 h -5.21775 -5.21774 l 0.0512,-1.45348 z m 33.51389,1.7e-4 0.0512,-1.45323 0.97014,-0.1352 c 1.69207,-0.23579 1.58812,0.37933 1.58329,-9.36919 -0.004,-8.07158 -0.0818,-9.6179 -0.50504,-10.04117 -0.10114,-0.10114 -0.62325,-0.22032 -1.16023,-0.26486 l -0.97635,-0.0809 v -1.37659 -1.3766 l 1.00224,-0.37499 c 2.32592,-0.87024 4.8668,-1.14285 5.86084,-0.62881 0.98945,0.51167 0.9924,0.54663 0.91891,10.94443 -0.037,5.23875 -0.009,10.02206 0.0617,10.62958 0.16522,1.41496 0.47071,1.78856 1.59314,1.94832 l 0.88195,0.12554 0.0512,1.45349 0.0512,1.45348 h -5.21774 -5.21774 l 0.0512,-1.45323 z m -30.37766,-19.40467 c -0.94423,-0.64265 -1.29127,-1.2492 -1.36109,-2.37888 -0.11895,-1.92502 1.05483,-3.1337 3.03858,-3.12894 1.78118,0.004 2.67658,0.82193 2.85062,2.60309 0.17989,1.84111 -1.16,3.29262 -3.04501,3.2987 -0.6464,0.002 -1.06426,-0.10892 -1.4831,-0.39397 z"
         id="path238"
         sodipodi:nodetypes="cssssssscsssssscssccccssscsccscccscccssscsssccscccssscccscccccssccccsssscssssccssscssscsccscccccsccsscccsssscscccccccccsssccccssscscccccccsscscs" /><path
         d="m 107.16253,93.920837 c -1.56158,-0.24379 -3.46449,-1.21693 -4.50815,-2.30545 -1.68293,-1.75526 -2.38964,-3.92115 -2.23767,-6.85786 0.20137,-3.89133 1.74839,-6.43725 4.77654,-7.86073 3.1612,-1.48604 7.41613,-1.0911 9.6113,0.89209 2.13603,1.92978 2.89024,7.21161 1.14341,8.00752 -0.28226,0.12861 -2.12256,0.19584 -5.36041,0.19584 h -4.93059 v 0.67532 c 0,0.97576 0.85518,2.1916 1.90531,2.70885 0.71213,0.35076 1.08928,0.40685 2.6808,0.39863 1.62667,-0.008 2.04529,-0.0788 3.43958,-0.5784 0.87313,-0.31286 1.72151,-0.61419 1.8853,-0.66962 0.23253,-0.0787 0.45916,0.22014 1.03396,1.36337 l 0.73617,1.46415 -0.4166,0.34438 c -0.67744,0.56 -3.18936,1.67494 -4.40433,1.95489 -1.49211,0.34381 -4.04671,0.4712 -5.35462,0.26702 z m 2.70007,-11.21889 c 2.12547,-0.11429 2.14436,-0.1191 2.14436,-0.54661 0,-0.85587 -0.5483,-1.65945 -1.38473,-2.02944 -1.02053,-0.45143 -2.70947,-0.35465 -3.61882,0.20736 -0.60238,0.37229 -1.34645,1.58081 -1.34645,2.1869 0,0.34398 0.6593,0.37247 4.20564,0.18179 z m 32.39505,11.21999 c -2.06721,-0.31866 -4.13951,-1.64447 -5.38688,-3.4464 -1.67685,-2.42236 -1.83648,-6.86476 -0.35441,-9.86315 1.66069,-3.35976 5.33698,-5.09479 9.53365,-4.49943 3.16108,0.44844 5.1001,2.15993 5.74838,5.07385 0.48818,2.19424 0.16323,4.19394 -0.74904,4.6096 -0.28226,0.12861 -2.12257,0.19584 -5.36041,0.19584 h -4.93059 v 0.62612 c 0,1.31774 1.2725,2.70628 2.82045,3.07762 1.77956,0.42691 4.78565,-0.0626 6.80858,-1.10869 l 0.52437,-0.27116 0.77379,1.51116 0.7738,1.51116 -0.42654,0.35243 c -0.68636,0.56711 -3.19192,1.68128 -4.41426,1.96293 -1.49041,0.34342 -4.04391,0.47113 -5.36089,0.26812 z m 2.86632,-11.22064 1.98438,-0.11434 -0.001,-0.54631 c -0.001,-0.61068 -0.45429,-1.39626 -1.04282,-1.80848 -0.5362,-0.37556 -2.27491,-0.50823 -3.11954,-0.23803 -1.12837,0.36099 -2.18641,1.59633 -2.18641,2.55286 0,0.31072 1.02333,0.34689 4.36563,0.1543 z m 13.14733,10.97255 c -2.64355,-0.82617 -3.93211,-2.72075 -3.71237,-5.45831 0.20372,-2.53793 1.69588,-3.81891 5.15015,-4.42129 0.85613,-0.14929 2.32979,-0.27144 3.27483,-0.27144 h 1.71824 l 0.10396,-0.66146 c 0.0969,-0.61683 -0.0308,-1.50059 -0.31677,-2.19124 -0.44638,-1.07808 -3.95398,-1.14727 -4.82646,-0.0952 -0.12851,0.15496 -0.28824,0.66335 -0.35495,1.12975 l -0.1213,0.84801 h -1.4954 -1.49539 l -0.11316,-0.52917 c -0.0622,-0.29104 -0.12254,-1.19161 -0.13402,-2.00126 -0.0255,-1.79892 0.24159,-2.35015 1.43276,-2.95694 1.44739,-0.73731 2.98533,-1.0101 5.60193,-0.99363 3.05849,0.0193 4.41854,0.39512 5.55999,1.53657 0.41996,0.41996 0.86233,1.06925 0.98306,1.44288 0.14108,0.43663 0.25608,2.42158 0.3219,5.55605 0.11976,5.70298 0.0939,5.61841 1.71725,5.61841 h 0.9428 v 1.50367 c 0,1.78336 0.0633,1.73294 -2.56242,2.0426 -2.13237,0.25148 -3.1994,0.0316 -3.94,-0.81188 -0.28179,-0.32094 -0.55032,-0.69045 -0.59674,-0.82111 -0.0645,-0.18173 -0.18339,-0.15193 -0.50547,0.12673 -1.69814,1.46923 -4.52009,2.06841 -6.63242,1.40826 z m 5.77038,-3.71267 0.61736,-0.21113 0.051,-1.52612 0.051,-1.52612 -1.63846,0.004 c -2.16739,0.005 -3.02144,0.36065 -3.32853,1.38562 -0.18504,0.61763 -0.17126,0.77604 0.1048,1.20424 0.36154,0.5608 0.68806,0.79745 1.32068,0.9572 0.55184,0.13934 2.00767,-0.009 2.82222,-0.28756 z m -88.194437,2.12823 v -1.51105 l 0.57326,-0.004 c 0.98088,-0.007 1.97107,-0.31474 2.29306,-0.71219 0.28429,-0.35091 0.30868,-1.04235 0.30868,-8.75154 0,-5.30794 -0.0653,-8.49254 -0.17847,-8.70399 -0.21013,-0.39264 -1.19353,-0.69931 -2.24688,-0.7007 l -0.74965,-9.8e-4 v -1.5184 -1.51841 l 7.18784,0.0875 c 7.745378,0.0942 8.657778,0.18855 10.408578,1.07575 1.80494,0.91463 2.68987,2.30394 2.8225,4.43124 0.1681,2.69626 -1.36758,4.83298 -4.1815,5.81807 l -0.62701,0.21951 1.00886,0.21169 c 2.13082,0.44713 3.68628,1.54389 4.59014,3.23654 0.34337,0.643 0.39773,1.00981 0.39796,2.68502 1.8e-4,1.8108 -0.0368,2.01852 -0.55525,3.11277 -0.80523,1.69957 -2.40586,2.91598 -4.74377,3.60507 -0.912,0.26881 -2.05784,0.31891 -8.67953,0.37955 l -7.628818,0.0699 z m 13.927888,-2.75022 c 1.34886,-0.74824 1.94673,-2.08751 1.69155,-3.78917 -0.16198,-1.08021 -0.748,-1.86791 -1.76437,-2.37162 -0.73871,-0.3661 -1.19285,-0.44401 -2.95426,-0.50681 l -2.08137,-0.0742 v 3.36313 c 0,4.13962 -0.11303,3.96831 2.55764,3.87611 1.47622,-0.051 1.89223,-0.13209 2.55081,-0.49743 z m -1.01321,-10.98764 c 2.12758,-0.88896 2.32565,-3.95691 0.33088,-5.12504 -0.42207,-0.24716 -1.05027,-0.35338 -2.49511,-0.42186 l -1.93101,-0.0915 v 3.05023 3.05024 l 1.74985,-0.10661 c 0.96241,-0.0586 2.01784,-0.21858 2.34539,-0.35544 z m 30.161169,13.77219 0.0512,-1.45324 0.96006,-0.13771 c 1.648,-0.23638 1.59758,-0.078 1.59758,-5.01687 v -4.30221 l -0.43296,-0.43295 c -0.34526,-0.34527 -0.6132,-0.43295 -1.32291,-0.43295 h -0.88996 v -1.42103 -1.42103 l 0.76901,-0.34018 c 1.24467,-0.55057 2.93306,-0.92184 4.28881,-0.94308 1.50729,-0.0236 2.12355,0.32265 2.50455,1.40727 l 0.24224,0.68957 0.70967,-0.65824 c 1.03817,-0.96293 2.13636,-1.43846 3.48016,-1.50696 1.44095,-0.0735 2.18066,0.3189 2.45165,1.30036 0.19406,0.70282 -0.0541,4.27052 -0.31526,4.53164 -0.0778,0.0778 -0.76202,0.11799 -1.52057,0.0894 l -1.37919,-0.052 -0.20404,-0.60763 c -0.11222,-0.33419 -0.40447,-0.75727 -0.64944,-0.94016 -0.37885,-0.28286 -0.54829,-0.30473 -1.13407,-0.1464 -0.37876,0.10238 -0.86726,0.31167 -1.08554,0.4651 -0.3899,0.27405 -0.39669,0.34157 -0.38636,3.84083 0.0113,3.84157 0.13901,5.10991 0.55638,5.52727 0.14658,0.14659 0.61478,0.30505 1.04044,0.35213 1.66506,0.18419 1.56767,0.0814 1.56767,1.65458 v 1.40775 h -5.47519 -5.47519 z m 54.85694,-0.002 0.0512,-1.45521 0.52917,-0.0548 c 1.01348,-0.10493 1.81669,-0.39205 1.94924,-0.69679 0.18994,-0.43669 0.31972,-5.9768 0.17563,-7.49778 -0.16114,-1.70095 -0.35832,-1.93936 -1.68323,-2.0352 l -1.059,-0.0766 v -1.39618 -1.39618 l 0.80224,-0.34388 c 1.85331,-0.79443 4.51773,-1.19375 5.54165,-0.83055 0.68211,0.24196 1.41722,1.19078 1.41722,1.82924 0,0.39656 0.0469,0.38163 1.13029,-0.36012 1.82526,-1.24962 2.87598,-1.58178 5.04332,-1.59434 2.12701,-0.0123 2.96137,0.29521 3.80627,1.40294 0.79271,1.03929 0.94865,2.18611 0.97106,7.14119 0.0112,2.47385 0.0752,4.69635 0.14222,4.93889 0.13453,0.4867 0.94382,0.85511 1.91552,0.87199 l 0.57326,0.01 v 1.49931 1.4993 h -4.94602 -4.94602 l 0.0512,-1.44778 0.0512,-1.44778 0.70556,-0.14166 c 1.28713,-0.25841 1.32291,-0.3845 1.32291,-4.6609 0,-4.07148 -0.12191,-4.77151 -0.90388,-5.19001 -0.57685,-0.30872 -2.53645,-0.26706 -3.72633,0.0792 l -1.01423,0.29516 v 4.39219 c 0,5.11147 -0.0685,4.90051 1.67569,5.16213 0.31499,0.0472 0.35827,0.20861 0.40401,1.50617 l 0.0512,1.45326 h -5.04135 -5.04135 l 0.0512,-1.45521 z"
         style="fill:#000000;stroke-width:0.176389"
         id="path518" /><path
         d="m 63.845719,139.58098 c -3.503751,-0.43113 -5.685831,-1.54542 -6.246051,-3.18957 -0.292196,-0.85755 -0.36948,-3.07904 -0.166042,-4.77275 l 0.111231,-0.92604 h 1.368949 1.368948 l 0.217929,0.92604 c 0.25427,1.08046 0.76505,2.17303 1.277327,2.73222 0.958261,1.04602 4.529353,1.61559 6.513321,1.03884 1.348327,-0.39197 2.080777,-1.21547 2.080777,-2.33943 0,-1.84425 -0.466006,-2.21267 -4.7625,-3.76522 -3.545839,-1.2813 -4.600877,-1.81282 -5.797655,-2.92083 -1.640669,-1.51897 -2.315039,-3.53562 -1.983161,-5.93049 0.661821,-4.77579 5.016784,-7.19415 11.779583,-6.54132 3.521347,0.33992 4.945949,1.02267 5.36846,2.5729 0.194179,0.71245 0.09244,4.73682 -0.134724,5.32879 -0.07395,0.19271 -0.435033,0.25544 -1.470291,0.25544 h -1.372267 l -0.210515,-1.11569 c -0.261481,-1.38579 -0.82859,-2.42432 -1.499674,-2.74629 -0.720269,-0.34557 -3.108848,-0.55525 -4.235754,-0.37185 -1.367275,0.22253 -1.938625,0.5792 -2.376371,1.48346 -0.459923,0.95008 -0.360763,1.80803 0.299679,2.59292 0.580995,0.69047 0.925972,0.85594 4.538799,2.17697 3.701223,1.35336 4.647142,1.84501 5.844074,3.03754 1.474575,1.46914 2.112341,3.79804 1.677315,6.12497 -0.582788,3.11731 -2.72041,5.17924 -6.239585,6.01866 -1.112143,0.26527 -4.812623,0.4709 -5.951802,0.33073 z m 18.944254,-0.4912 c -0.494722,-0.23036 -1.071861,-0.6609 -1.282531,-0.95676 -0.837588,-1.17628 -0.90478,-1.69774 -0.90478,-7.02161 v -5.00491 h -1.418244 -1.418244 l 0.05123,-1.42379 0.05123,-1.4238 0.946601,-0.31995 c 1.360278,-0.45976 1.86859,-1.05794 2.329632,-2.74148 0.21254,-0.77611 0.475148,-1.60266 0.583574,-1.83677 0.600923,-1.29748 3.237524,-1.47273 3.793659,-0.25215 0.107712,0.2364 0.195839,1.33194 0.195839,2.43452 v 2.0047 l 2.116667,0.12633 2.116667,0.12633 v 1.56484 1.56484 l -0.926042,0.001 c -0.509323,7.1e-4 -1.461823,0.0519 -2.116667,0.1137 l -1.190625,0.11245 0.01051,3.36998 c 0.0058,1.85349 0.07282,3.7486 0.148962,4.21136 0.254067,1.54405 1.168785,2.02641 3.280107,1.72971 0.582083,-0.0818 1.074122,-0.13558 1.093417,-0.1195 0.0193,0.0161 0.188761,0.71891 0.376588,1.56186 l 0.341505,1.53263 -0.915703,0.34261 c -1.348963,0.50471 -2.778665,0.72611 -4.676467,0.72417 -1.40363,-0.001 -1.838662,-0.0722 -2.586891,-0.42056 z m 13.20897,0.16638 c -1.092006,-0.34128 -2.226539,-1.05675 -2.737062,-1.7261 -1.324119,-1.736 -1.343446,-4.53657 -0.04307,-6.24145 1.001677,-1.31327 4.042181,-2.18349 7.628999,-2.18349 h 1.85448 l -0.10437,-1.11777 c -0.13446,-1.4399 -0.38945,-1.97606 -1.10017,-2.31332 -0.7109,-0.33734 -2.537286,-0.35713 -3.305954,-0.0358 -0.78045,0.32623 -1.014977,0.66082 -1.155717,1.64876 l -0.120809,0.84801 -1.392696,0.052 c -0.765987,0.0286 -1.466762,-0.0221 -1.557285,-0.11258 -0.09052,-0.0905 -0.209409,-0.97817 -0.264195,-1.97255 -0.120985,-2.19534 0.08872,-2.72303 1.356272,-3.41292 1.39737,-0.76054 2.988116,-1.05174 5.653634,-1.03496 3.74781,0.0236 5.43214,0.72357 6.38212,2.65229 0.39054,0.79291 0.4128,1.05251 0.49705,5.79501 0.1031,5.80392 0.0741,5.70661 1.70303,5.70661 h 0.9428 v 1.50367 c 0,1.77558 0.0708,1.71729 -2.4846,2.04501 -2.11109,0.27073 -3.27012,0.0373 -4.01247,-0.80821 -0.28473,-0.32429 -0.55566,-0.69653 -0.60209,-0.82719 -0.0646,-0.18173 -0.18339,-0.15193 -0.50546,0.12673 -1.69815,1.46923 -4.520105,2.06841 -6.632433,1.40826 z m 5.546547,-3.65323 c 0.41046,-0.10548 0.83081,-0.29361 0.93411,-0.41807 0.1069,-0.12881 0.16532,-0.78415 0.13564,-1.52141 l -0.0522,-1.29514 -1.63518,-0.0508 c -2.095588,-0.0651 -3.065374,0.29611 -3.383509,1.26007 -0.171838,0.52065 -0.158662,0.73271 0.07632,1.22788 0.534899,1.12724 1.711325,1.36626 3.924779,0.79743 z m 38.76481,3.67044 c -2.93343,-0.96902 -4.63611,-2.92878 -5.30967,-6.11131 -0.66448,-3.13959 0.33469,-7.04107 2.32861,-9.09267 1.89472,-1.94952 5.82308,-2.87341 8.97829,-2.11155 0.58208,0.14055 1.11786,0.25837 1.19062,0.26183 0.17434,0.008 0.15083,-3.19216 -0.0316,-4.30381 -0.18045,-1.09954 -0.64721,-1.51074 -1.71485,-1.51074 h -0.78135 l 0.0512,-1.45521 0.0512,-1.45521 1.4993,-0.50745 c 1.04105,-0.35236 1.98872,-0.53443 3.10057,-0.59571 1.75706,-0.0969 2.17399,0.0266 2.67617,0.79269 0.28296,0.43163 0.31604,1.37303 0.39687,11.29701 0.10065,12.35451 -0.0551,11.32665 1.71629,11.32665 h 0.94329 l -0.051,1.53116 -0.051,1.53116 -0.52917,0.14163 c -1.14076,0.30533 -3.2909,0.5087 -4.15974,0.39344 -1.0163,-0.13482 -2.02796,-0.85949 -2.20948,-1.5827 l -0.10427,-0.41544 -0.64382,0.51229 c -0.35408,0.28176 -1.08036,0.73337 -1.61394,1.00356 -0.8697,0.44042 -1.18013,0.49605 -2.99861,0.53736 -1.32572,0.0301 -2.27291,-0.0347 -2.73403,-0.18698 z m 6.3941,-4.26723 0.92604,-0.41345 v -4.1639 -4.1639 l -0.66146,-0.27659 c -0.41447,-0.17331 -1.2213,-0.28072 -2.16076,-0.28764 -1.28233,-0.009 -1.62863,0.0555 -2.39303,0.44858 -0.97586,0.50186 -1.68579,1.40042 -1.99969,2.53101 -0.24615,0.88652 -0.24615,2.96182 0,3.84834 0.74551,2.6851 3.44345,3.74797 6.2889,2.47755 z m 14.2434,4.26912 c -1.65262,-0.54593 -2.64227,-1.40189 -3.27376,-2.83156 -0.48214,-1.09156 -0.51747,-3.02403 -0.0754,-4.12237 0.84088,-2.08897 3.70077,-3.20349 8.24391,-3.21272 l 1.71979,-0.003 v -0.97581 c 0,-1.98579 -0.74411,-2.72836 -2.73403,-2.72836 -1.78161,0 -2.60057,0.59853 -2.83585,2.07257 l -0.11965,0.74965 h -1.45471 -1.45472 l -0.10045,-0.50223 c -0.0552,-0.27623 -0.15372,-1.09023 -0.21885,-1.80889 -0.20676,-2.28178 0.49938,-3.15694 3.09743,-3.83875 4.04161,-1.06065 8.72273,-0.34655 9.95726,1.51897 0.77791,1.17549 0.84959,1.68342 0.96063,6.80618 0.12199,5.62759 0.052,5.40944 1.7345,5.40944 h 0.94329 l -0.051,1.53232 -0.051,1.53233 -0.88195,0.23657 c -0.48507,0.13012 -1.67569,0.25417 -2.64583,0.27567 -2.25967,0.0501 -2.71595,-0.17891 -3.56029,-1.78671 -0.0179,-0.034 -0.29905,0.14138 -0.6248,0.38985 -1.26388,0.96401 -2.57918,1.41553 -4.28158,1.4698 -0.97762,0.0312 -1.85855,-0.0389 -2.29305,-0.18246 z m 5.95313,-3.77378 0.66146,-0.26106 v -1.48015 -1.48015 l -1.54341,10e-4 c -1.88263,0.001 -2.73713,0.22011 -3.21107,0.82263 -0.73355,0.93256 -0.24666,2.34204 0.92911,2.68965 0.69189,0.20454 2.27644,0.0584 3.16391,-0.2919 z m 31.65253,3.75522 c -3.386,-0.96723 -5.41468,-4.00715 -5.41468,-8.11375 0,-3.632 1.45789,-6.74583 3.80139,-8.11921 2.29008,-1.34208 5.64935,-1.6859 8.50173,-0.87015 0.3957,0.11317 0.39688,0.10726 0.39589,-1.97964 -0.002,-2.31434 -0.19755,-3.3211 -0.70069,-3.59037 -0.1834,-0.0982 -0.69587,-0.17846 -1.13882,-0.17846 h -0.80533 v -1.3828 c 0,-1.33566 0.0166,-1.39057 0.48507,-1.61075 1.81611,-0.85346 5.14955,-1.32945 6.21619,-0.88764 1.16632,0.4831 1.13733,0.18066 1.14296,11.93182 0.006,12.21778 -0.1182,11.35214 1.62678,11.35214 h 0.94968 l -0.051,1.54341 -0.051,1.5434 -0.88195,0.23144 c -0.48507,0.12728 -1.63601,0.24635 -2.55764,0.26458 -1.9416,0.0384 -2.66091,-0.25159 -3.26309,-1.31552 l -0.35288,-0.62346 -0.44097,0.4206 c -0.24254,0.23133 -0.95524,0.67506 -1.5838,0.98606 -1.05442,0.52173 -1.29316,0.56836 -3.0868,0.60287 -1.22811,0.0236 -2.25595,-0.0517 -2.79111,-0.20457 z m 6.40337,-4.21604 0.79375,-0.37929 0.0472,-4.25365 0.0472,-4.25364 -0.83886,-0.23487 c -1.22465,-0.34288 -2.98393,-0.31237 -3.97203,0.0689 -1.00062,0.38608 -1.92664,1.39929 -2.24303,2.45423 -0.79689,2.65715 -0.0514,5.49978 1.71367,6.53402 1.19415,0.69973 3.06583,0.72677 4.45214,0.0643 z m -93.44914,2.66339 0.0512,-1.45521 0.52917,-0.0548 c 1.01148,-0.10473 1.81663,-0.39182 1.95403,-0.69679 0.18576,-0.41223 0.31606,-6.34794 0.16898,-7.69836 -0.16282,-1.49516 -0.38819,-1.74108 -1.68137,-1.83462 l -1.059,-0.0766 v -1.39618 -1.39618 l 0.80223,-0.34388 c 1.74553,-0.74822 4.35303,-1.17978 5.35552,-0.88638 0.84991,0.24874 1.41596,0.84727 1.54104,1.62946 0.0591,0.36942 0.14631,0.67167 0.19387,0.67167 0.0475,0 0.36922,-0.24826 0.7148,-0.55169 2.51809,-2.21092 7.20788,-2.55235 8.97891,-0.65369 0.93218,0.99937 1.00075,1.44138 1.10333,7.11441 0.0526,2.91042 0.15812,5.38795 0.23437,5.50562 0.16408,0.25316 1.24748,0.57742 1.93391,0.57881 l 0.48507,0.001 v 1.49931 1.4993 h -4.94601 -4.94603 l 0.0512,-1.44778 0.0512,-1.44778 0.70555,-0.14165 c 1.28713,-0.25842 1.32292,-0.38451 1.32292,-4.66091 0,-4.07148 -0.12192,-4.77151 -0.90389,-5.19001 -0.57684,-0.30872 -2.53643,-0.26706 -3.72632,0.0792 l -1.01423,0.29516 v 4.29706 c 0,4.872 0.0297,4.98777 1.33383,5.19889 l 0.69464,0.11245 0.0512,1.45268 0.0512,1.45267 h -5.04136 -5.04135 l 0.0512,-1.45521 z m 65.0875,0.002 0.0512,-1.45348 0.81638,-0.11632 c 1.05073,-0.14971 1.53601,-0.4163 1.66047,-0.91218 0.0549,-0.21863 0.0756,-2.24754 0.0462,-4.5087 -0.0532,-4.07794 -0.057,-4.11391 -0.47001,-4.44809 -0.28291,-0.2289 -0.69289,-0.33691 -1.27882,-0.33691 h -0.8624 v -1.42102 -1.42103 l 0.76902,-0.34018 c 1.24467,-0.55057 2.93305,-0.92184 4.28881,-0.94308 1.5143,-0.0237 2.10986,0.31659 2.47592,1.41476 l 0.23587,0.70757 0.68206,-0.64884 c 1.05761,-1.00608 2.36243,-1.58151 3.58616,-1.58151 2.12688,0 2.53182,0.62097 2.3703,3.63489 -0.0596,1.11294 -0.15556,2.09975 -0.21315,2.19293 -0.0576,0.0932 -0.76213,0.1694 -1.56567,0.1694 h -1.46097 l -0.21162,-0.70626 c -0.28977,-0.96722 -0.84331,-1.31128 -1.72582,-1.07273 -0.37183,0.10051 -0.86074,0.31256 -1.0865,0.47122 l -0.41046,0.28847 0.0577,4.29739 c 0.0549,4.09238 0.0754,4.31508 0.42868,4.66811 0.2211,0.22094 0.6843,0.40538 1.14653,0.45653 1.66696,0.18448 1.56927,0.0815 1.56927,1.6548 v 1.40775 h -5.47518 -5.4752 z"
         style="fill:#000000;stroke-width:0.176389"
         id="path541" /></g></g></svg>
