<?xml version="1.0" encoding="UTF-8" standalone="no"?>
<!-- Created with Inkscape (http://www.inkscape.org/) -->

<svg
   width="24mm"
   height="24mm"
   viewBox="0 0 24 24"
   version="1.1"
   id="svg1"
   xml:space="preserve"
   inkscape:export-filename="aleph.svg"
   inkscape:export-xdpi="26.837093"
   inkscape:export-ydpi="26.837093"
   xmlns:inkscape="http://www.inkscape.org/namespaces/inkscape"
   xmlns:sodipodi="http://sodipodi.sourceforge.net/DTD/sodipodi-0.dtd"
   xmlns="http://www.w3.org/2000/svg"
   xmlns:svg="http://www.w3.org/2000/svg"><sodipodi:namedview
     id="namedview1"
     pagecolor="#ffffff"
     bordercolor="#000000"
     borderopacity="0.25"
     inkscape:showpageshadow="2"
     inkscape:pageopacity="0.0"
     inkscape:pagecheckerboard="0"
     inkscape:deskcolor="#d1d1d1"
     inkscape:document-units="px"
     showguides="true"><inkscape:page
       x="0"
       y="0"
       width="24"
       height="24"
       id="page2"
       margin="0"
       bleed="0" /></sodipodi:namedview><defs
     id="defs1" /><g
     inkscape:label="Layer 1"
     inkscape:groupmode="layer"
     id="layer1"><g
       id="g3"
       transform="matrix(0.86679199,0,0,0.87019935,1.5984961,1.5576079)"><path
         style="fill:#000000;stroke-width:0.256331"
         d="m 4.5292162,23.132075 c -1.3109011,-0.0061 -2.3834571,-0.02272 -2.3834571,-0.0371 0,-0.01438 0.066242,-0.127206 0.1472148,-0.25073 0.1386857,-0.211577 0.1604151,-0.226017 0.3750624,-0.249225 0.6104622,-0.06601 0.94608,-0.237422 1.101809,-0.562746 0.1719854,-0.359282 0.180896,-1.119232 0.020413,-1.740565 C 3.7034284,19.955543 3.1768448,18.100058 2.9211172,17.229174 2.3481155,15.277818 2.2496264,14.634435 2.4148484,13.921969 2.5246211,13.44861 2.6992975,13.024777 3.001681,12.498088 3.2651755,12.039133 3.7573305,11.347929 4.0543865,11.019623 4.4789782,10.550361 4.7855898,10.214804 4.807382,10.195541 4.820754,10.183721 4.88259,10.123701 4.9447987,10.06217 L 5.0579083,9.9502844 4.7270716,9.812466 C 4.4713993,9.7059595 4.2853186,9.5779061 3.9080435,9.2488452 2.7605177,8.247969 2.215982,7.0933345 2.0472922,5.3033049 1.9180423,3.9317945 2.207335,2.8984277 2.9953332,1.9168512 3.4768138,1.3170918 3.9843515,0.98717931 4.4255405,0.98717931 c 0.2332084,0 0.2578611,0.044489 0.3042921,0.54914419 0.1375153,1.4946454 1.0201477,2.7782305 3.1811805,4.6262989 1.8102974,1.5481275 5.2006349,3.9094786 5.6075899,3.9056556 0.03992,-3.83e-4 0.48637,-0.5048141 0.992099,-1.1209756 0.505729,-0.6161614 0.990072,-1.2003278 1.07632,-1.2981459 0.161871,-0.1835869 0.198207,-0.2834572 0.103131,-0.2834572 -0.173937,0 -1.417861,-0.8663198 -2.122885,-1.4784654 -0.803227,-0.6974107 -1.216949,-1.243698 -1.350133,-1.7827464 -0.280814,-1.1365662 1.32626,-3.11421479 2.625801,-3.23128549 0.381244,-0.0343499 0.41789,0.014905 0.41789,0.56158929 0,0.6686169 0.179203,1.0255374 0.772202,1.5380011 0.403171,0.3484159 0.743416,0.5615685 1.913724,1.1988854 2.041653,1.111828 2.245732,1.2405447 2.824473,1.7814625 0.630567,0.5893556 0.982697,1.1001404 1.14853,1.6660101 0.0625,0.2132831 0.07425,0.3830059 0.0526,0.7603532 -0.05833,1.0168706 -0.540594,1.8819244 -1.500368,2.6912434 -0.488117,0.4116 -0.771578,0.595938 -1.157639,0.75282 -0.309485,0.125766 -0.499242,0.13367 -0.566725,0.02361 -0.03965,-0.06467 -0.204285,-0.722326 -0.423943,-1.693516 C 18.208086,9.6425627 17.898075,9.0376948 17.540645,8.6258616 17.314217,8.3649706 16.735407,7.9359651 16.609842,7.9359651 c -0.02994,0 -0.391546,0.4657158 -0.803556,1.0349253 -0.412011,0.5692087 -0.876277,1.2048116 -1.031702,1.4124506 -0.155425,0.207639 -0.271458,0.393248 -0.257853,0.412461 0.0136,0.01921 0.115814,0.07505 0.227131,0.124081 0.669433,0.294848 2.346371,1.352531 3.299681,2.081183 1.749651,1.337326 3.084931,2.957529 3.606416,4.375952 0.291263,0.792227 0.309888,0.918394 0.311795,2.112092 0.0018,1.076116 -0.02549,1.382906 -0.177986,2.006488 -0.149896,0.612968 -0.403329,1.094386 -0.703071,1.33555 -0.286486,0.230497 -0.473924,0.290762 -0.904352,0.290762 h -0.362654 l -0.04636,-0.158408 c -0.0255,-0.08712 -0.06056,-0.243946 -0.0779,-0.348495 -0.139292,-0.839674 -0.342744,-1.43911 -0.7034,-2.07244 -0.562936,-0.988546 -1.198095,-1.585726 -2.781504,-2.61519 -0.244606,-0.159032 -2.308153,-1.58751 -2.614501,-1.809872 -0.05387,-0.03911 -0.326099,-0.232055 -0.604939,-0.428776 C 12.706248,15.492008 12.280775,15.187867 12.039591,15.01286 11.798406,14.837852 11.505996,14.628132 11.389789,14.546817 11.194453,14.410129 9.8182655,13.414428 9.4713855,13.158808 9.3881085,13.097439 9.2147539,12.971196 9.0861518,12.878263 8.95755,12.785332 8.3941297,12.375419 7.8341073,11.967346 6.3952518,10.918893 5.7802029,10.4916 5.709909,10.4916 c -0.117958,0 -0.7168906,0.473642 -0.9513477,0.752336 -0.4561201,0.54218 -0.6286031,0.982125 -0.6286031,1.603352 0,0.62243 0.3146061,1.311325 0.9594104,2.100826 0.4357711,0.533561 0.6775371,0.786822 1.8957411,1.985871 0.589823,0.580549 1.2318264,1.245631 1.4266749,1.477961 1.1201369,1.33561 1.4634349,2.553244 0.9590869,3.401752 -0.145887,0.24544 -0.4916137,0.55757 -0.8265221,0.746205 -0.2998016,0.16886 -1.2767315,0.540688 -1.4864898,0.56577 -0.079853,0.0095 -1.2177405,0.01243 -2.5286425,0.0064 z"
         id="path3" /></g></g></svg>
