<?xml version="1.0" encoding="UTF-8" standalone="no"?>
<!-- Created with Inkscape (http://www.inkscape.org/) -->

<svg
   width="24mm"
   height="24mm"
   viewBox="0 0 23.999999 24"
   version="1.1"
   id="svg1"
   xml:space="preserve"
   sodipodi:docname="alpha.svg"
   inkscape:export-filename="alpha.png"
   inkscape:export-xdpi="25.4"
   inkscape:export-ydpi="25.4"
   xmlns:inkscape="http://www.inkscape.org/namespaces/inkscape"
   xmlns:sodipodi="http://sodipodi.sourceforge.net/DTD/sodipodi-0.dtd"
   xmlns="http://www.w3.org/2000/svg"
   xmlns:svg="http://www.w3.org/2000/svg"><sodipodi:namedview
     id="namedview1"
     pagecolor="#ffffff"
     bordercolor="#000000"
     borderopacity="0.25"
     inkscape:showpageshadow="2"
     inkscape:pageopacity="0.0"
     inkscape:pagecheckerboard="0"
     inkscape:deskcolor="#d1d1d1"
     inkscape:document-units="px"
     showguides="true"><inkscape:page
       x="0"
       y="0"
       width="23.999998"
       height="24"
       id="page2"
       margin="0"
       bleed="0" /></sodipodi:namedview><defs
     id="defs1" /><g
     inkscape:label="Layer 1"
     inkscape:groupmode="layer"
     id="layer1"
     transform="translate(-0.67750863,-0.57985366)"><path
       style="fill:#000000;stroke-width:0.213996"
       d="M 9.5017062,22.366189 C 7.9813449,22.208018 6.815807,21.642281 5.8218299,20.580021 4.5082049,19.176153 3.7768226,17.258111 3.4919831,14.470013 3.4611871,14.16857 3.4447551,13.491958 3.4456581,12.562511 3.4468881,11.294855 3.4568591,11.045226 3.5288051,10.48055 3.8642659,7.8476333 4.6019704,6.1094298 6.0111428,4.6315851 7.2196971,3.3641334 8.5415937,2.7667841 10.135735,2.767729 c 1.124186,6.544e-4 1.964662,0.3022844 2.76942,0.9938495 0.931533,0.8005112 1.813678,2.458412 2.524782,4.7450793 0.08531,0.2743333 0.160206,0.4933072 0.166435,0.4866064 0.0062,-0.00668 0.260905,-1.247187 0.565945,-2.7566421 0.305042,-1.5094552 0.563548,-2.7838786 0.574458,-2.8320526 l 0.01983,-0.08759 h 1.60647 c 0.981724,0 1.606472,0.014278 1.606472,0.036707 0,0.051851 -1.902167,9.1332135 -2.144943,10.2404345 -0.110325,0.50315 -0.28409,1.244841 -0.386144,1.648202 l -0.185551,0.733376 0.09992,0.434478 c 0.319876,1.390909 0.781219,2.434696 1.283367,2.903629 0.41437,0.386963 1.009077,0.451929 1.591615,0.173876 0.547504,-0.261332 0.914657,-0.996699 0.974608,-1.952045 l 0.0226,-0.360089 h 0.342188 0.342186 l -4.23e-4,0.126518 c -8.02e-4,0.291656 -0.08047,1.093238 -0.151734,1.527945 -0.365203,2.22774 -1.345519,3.561968 -2.61714,3.561968 -0.751119,0 -1.29358,-0.37609 -1.63556,-1.133932 -0.224357,-0.497188 -0.486724,-1.355663 -0.718254,-2.350178 -0.104679,-0.449624 -0.198005,-0.843203 -0.207396,-0.874618 -0.0096,-0.03225 -0.105457,0.120257 -0.220116,0.350357 -1.192011,2.392144 -3.007349,3.714675 -5.445194,3.96699 -0.371003,0.03841 -1.1138617,0.0466 -1.4119262,0.0156 z m 1.1712278,-1.222623 c 0.526213,-0.09077 0.950746,-0.347035 1.446545,-0.873197 0.71179,-0.755389 1.228978,-1.78254 1.756034,-3.487539 0.292552,-0.946382 0.548174,-2.062329 0.900766,-3.932377 L 15.081641,11.230897 14.94077,10.728848 C 14.344456,8.6036828 13.47575,6.6049991 12.705919,5.5870082 12.257254,4.9937143 11.631878,4.5416133 11.038941,4.3819124 10.73042,4.2988152 10.147846,4.2994509 9.8173637,4.3832436 8.4830334,4.7215726 7.5811905,6.3059524 7.1967878,8.9871339 c -0.327181,2.2820681 -0.3261629,5.7137141 0.00231,7.8380501 0.2113931,1.367057 0.5779162,2.485973 1.0392784,3.172679 0.1857362,0.276455 0.5583968,0.664207 0.7829831,0.814687 0.4574479,0.306515 1.0754707,0.430378 1.6515567,0.331014 z"
       id="path1" /></g></svg>
